# This file uses centimeters as units for non-parametric coordinates.

mtllib button.mtl
g default
v 0.097562 0.000000 -0.097562
v 0.000000 0.000000 -0.137974
v -0.097562 0.000000 -0.097562
v -0.137974 0.000000 0.000000
v -0.097562 0.000000 0.097562
v 0.000000 0.000000 0.137974
v 0.097562 0.000000 0.097562
v 0.137974 0.000000 0.000000
v 0.097562 0.184307 -0.097562
v 0.000000 0.184307 -0.137974
v -0.097562 0.184307 -0.097562
v -0.137974 0.184307 0.000000
v -0.097562 0.184307 0.097562
v 0.000000 0.184307 0.137974
v 0.097562 0.184307 0.097562
v 0.137974 0.184307 0.000000
v 0.000000 0.000000 0.000000
v 0.000000 0.184307 0.000000
v 0.097562 0.092154 -0.097562
v 0.000000 0.092154 -0.137974
v -0.097562 0.092154 -0.097562
v -0.137974 0.092154 0.000000
v -0.097562 0.092154 0.097562
v 0.000000 0.092154 0.137974
v 0.097562 0.092154 0.097562
v 0.137974 0.092154 0.000000
v 0.097562 0.100623 -0.097562
v 0.137974 0.100623 0.000000
v 0.097562 0.100623 0.097562
v 0.000000 0.100623 0.137974
v -0.097562 0.100623 0.097562
v -0.137974 0.100623 0.000000
v -0.097562 0.100623 -0.097562
v 0.000000 0.100623 -0.137974
v 0.139764 0.098502 -0.139764
v 0.197657 0.098502 0.000000
v 0.139764 0.131402 -0.139764
v 0.197657 0.131402 0.000000
v 0.139764 0.098502 0.139765
v 0.139764 0.131402 0.139765
v -0.000000 0.098502 0.197657
v -0.000000 0.131402 0.197657
v -0.139764 0.098502 0.139764
v -0.139764 0.131402 0.139764
v -0.197657 0.098502 0.000000
v -0.197657 0.131402 0.000000
v -0.139764 0.098502 -0.139764
v -0.139764 0.131402 -0.139764
v -0.000000 0.098502 -0.197657
v -0.000000 0.131402 -0.197657
vt 0.875016 0.500000
vt 0.000016 0.500000
vt 0.000016 0.545954
vt 0.875016 0.545954
vt 0.125016 0.500000
vt 0.125016 0.545954
vt 0.250016 0.500000
vt 0.250016 0.545954
vt 0.375016 0.500000
vt 0.375016 0.545954
vt 0.500016 0.500000
vt 0.500016 0.545954
vt 0.625016 0.500000
vt 0.625016 0.545954
vt 0.750016 0.500000
vt 0.750016 0.545954
vt 0.000016 0.000000
vt 0.250016 0.000000
vt 0.125016 0.000000
vt 0.250016 0.000000
vt 0.375016 0.000000
vt 0.500016 0.000000
vt 0.625016 0.000000
vt 0.000016 1.000000
vt 0.250016 1.000000
vt 0.125016 1.000000
vt 0.250016 1.000000
vt 0.375016 1.000000
vt 0.500016 1.000000
vt 0.625016 1.000000
vt 0.750016 1.000000
vt 0.750016 0.534442
vt 0.750016 0.712949
vt 0.625016 0.534442
vt 0.625016 0.712949
vt 0.500016 0.534442
vt 0.500016 0.712949
vt 0.375016 0.534442
vt 0.375016 0.712949
vt 0.250016 0.534442
vt 0.250016 0.712949
vt 0.125016 0.534442
vt 0.125016 0.712949
vt 0.000016 0.534442
vt 0.000016 0.712949
vt 1.000016 0.500000
vt 0.875016 0.000000
vt 1.250016 0.000000
vt 0.750016 0.000000
vt 1.000016 1.000000
vt 1.250016 1.000000
vt 1.750016 1.000000
vt 1.000016 0.000000
vt 0.875016 0.534442
vt 1.000016 0.712949
vt 1.000016 0.545954
vt 1.000016 0.534442
vt 0.875016 1.000000
vt 0.875016 0.712949
vn 0.382683 0.000000 -0.923880
vn 0.382683 0.000000 -0.923880
vn 0.382683 0.000000 -0.923880
vn 0.382683 0.000000 -0.923880
vn -0.382683 0.000000 -0.923880
vn -0.382683 0.000000 -0.923880
vn -0.382683 0.000000 -0.923880
vn -0.382683 0.000000 -0.923880
vn -0.923880 0.000000 -0.382683
vn -0.923880 0.000000 -0.382683
vn -0.923880 0.000000 -0.382683
vn -0.923880 0.000000 -0.382683
vn -0.923880 0.000000 0.382683
vn -0.923880 0.000000 0.382683
vn -0.923880 0.000000 0.382683
vn -0.923880 0.000000 0.382683
vn -0.382683 0.000000 0.923880
vn -0.382683 0.000000 0.923880
vn -0.382683 0.000000 0.923880
vn -0.382683 0.000000 0.923880
vn 0.382683 0.000000 0.923880
vn 0.382683 0.000000 0.923880
vn 0.382683 0.000000 0.923880
vn 0.382683 0.000000 0.923880
vn 0.923880 0.000000 0.382684
vn 0.923880 0.000000 0.382684
vn 0.923880 0.000000 0.382684
vn 0.923880 0.000000 0.382684
vn 0.923880 0.000000 -0.382684
vn 0.923880 0.000000 -0.382684
vn 0.923880 0.000000 -0.382684
vn 0.923880 0.000000 -0.382684
vn 0.000000 -1.000000 0.000000
vn 0.000000 -1.000000 0.000000
vn 0.000000 -1.000000 0.000000
vn 0.000000 -1.000000 0.000000
vn 0.000000 -1.000000 0.000000
vn 0.000000 -1.000000 0.000000
vn 0.000000 -1.000000 0.000000
vn 0.000000 -1.000000 0.000000
vn 0.000000 -1.000000 0.000000
vn 0.000000 1.000000 -0.000000
vn 0.000000 1.000000 0.000000
vn 0.000000 1.000000 0.000000
vn 0.000000 1.000000 0.000000
vn 0.000000 1.000000 0.000000
vn 0.000000 1.000000 0.000000
vn 0.000000 1.000000 0.000000
vn 0.000000 1.000000 0.000000
vn 0.000000 1.000000 0.000000
vn 0.382683 0.000000 -0.923880
vn 0.382683 0.000000 -0.923880
vn -0.382683 0.000000 -0.923880
vn -0.382683 0.000000 -0.923880
vn -0.923880 0.000000 -0.382683
vn -0.923880 0.000000 -0.382683
vn -0.923880 0.000000 0.382683
vn -0.923880 0.000000 0.382683
vn -0.382683 0.000000 0.923880
vn -0.382683 0.000000 0.923880
vn 0.382683 0.000000 0.923880
vn 0.382683 0.000000 0.923880
vn 0.923880 0.000000 0.382683
vn 0.923880 0.000000 0.382683
vn 0.923880 0.000000 -0.382683
vn 0.923880 0.000000 -0.382683
vn 0.923880 0.000000 -0.382684
vn 0.923880 0.000000 -0.382684
vn 0.923880 0.000000 -0.382684
vn 0.923880 0.000000 -0.382684
vn 0.923880 0.000000 0.382683
vn 0.923880 0.000000 0.382683
vn 0.923880 0.000000 0.382683
vn 0.923880 0.000000 0.382683
vn 0.382683 0.000000 0.923880
vn 0.382683 0.000000 0.923880
vn 0.382683 0.000000 0.923880
vn 0.382683 0.000000 0.923880
vn -0.382683 0.000000 0.923880
vn -0.382683 0.000000 0.923880
vn -0.382683 0.000000 0.923880
vn -0.382683 0.000000 0.923880
vn -0.923880 0.000000 0.382683
vn -0.923880 0.000000 0.382683
vn -0.923880 0.000000 0.382683
vn -0.923880 0.000000 0.382683
vn -0.923880 0.000000 -0.382683
vn -0.923880 0.000000 -0.382683
vn -0.923880 0.000000 -0.382683
vn -0.923880 0.000000 -0.382683
vn -0.382683 0.000000 -0.923880
vn -0.382683 0.000000 -0.923880
vn -0.382683 0.000000 -0.923880
vn -0.382683 0.000000 -0.923880
vn 0.382683 0.000000 -0.923880
vn 0.382683 0.000000 -0.923880
vn 0.382683 0.000000 -0.923880
vn 0.382683 0.000000 -0.923880
vn -0.035525 -0.999260 0.014715
vn -0.035525 -0.999260 0.014715
vn -0.035525 -0.999260 0.014715
vn -0.035525 -0.999260 0.014715
vn 0.639637 0.721573 -0.264947
vn 0.639637 0.721573 -0.264947
vn 0.639637 0.721573 -0.264947
vn 0.639637 0.721573 -0.264947
vn -0.035525 -0.999260 -0.014715
vn -0.035525 -0.999260 -0.014715
vn -0.035525 -0.999260 -0.014715
vn -0.035525 -0.999260 -0.014715
vn 0.639637 0.721573 0.264947
vn 0.639637 0.721573 0.264946
vn 0.639637 0.721573 0.264947
vn 0.639637 0.721573 0.264947
vn -0.014715 -0.999260 -0.035525
vn -0.014715 -0.999260 -0.035525
vn -0.014715 -0.999260 -0.035525
vn -0.014715 -0.999260 -0.035525
vn 0.264946 0.721573 0.639637
vn 0.264946 0.721573 0.639637
vn 0.264946 0.721573 0.639637
vn 0.264946 0.721573 0.639637
vn 0.014715 -0.999260 -0.035525
vn 0.014715 -0.999260 -0.035525
vn 0.014715 -0.999260 -0.035525
vn 0.014715 -0.999260 -0.035525
vn -0.264946 0.721573 0.639637
vn -0.264946 0.721573 0.639637
vn -0.264946 0.721573 0.639637
vn -0.264946 0.721573 0.639637
vn 0.035525 -0.999260 -0.014715
vn 0.035525 -0.999260 -0.014715
vn 0.035525 -0.999260 -0.014715
vn 0.035525 -0.999260 -0.014715
vn -0.639637 0.721573 0.264946
vn -0.639637 0.721573 0.264946
vn -0.639637 0.721573 0.264946
vn -0.639637 0.721573 0.264946
vn 0.035525 -0.999260 0.014715
vn 0.035525 -0.999260 0.014715
vn 0.035525 -0.999260 0.014715
vn 0.035525 -0.999260 0.014715
vn -0.639637 0.721573 -0.264946
vn -0.639637 0.721573 -0.264946
vn -0.639637 0.721573 -0.264946
vn -0.639637 0.721573 -0.264946
vn 0.014715 -0.999260 0.035524
vn 0.014715 -0.999260 0.035524
vn 0.014715 -0.999260 0.035524
vn 0.014715 -0.999260 0.035524
vn -0.264946 0.721573 -0.639637
vn -0.264946 0.721573 -0.639637
vn -0.264946 0.721573 -0.639637
vn -0.264946 0.721573 -0.639637
vn -0.014715 -0.999260 0.035525
vn -0.014715 -0.999260 0.035525
vn -0.014715 -0.999260 0.035525
vn -0.014715 -0.999260 0.035525
vn 0.264946 0.721573 -0.639637
vn 0.264946 0.721573 -0.639637
vn 0.264946 0.721573 -0.639637
vn 0.264946 0.721573 -0.639637
s 1
g button_geo
usemtl lambert2SG
f 19/1/1 20/46/2 34/56/3 27/4/4
s 2
f 20/2/5 21/5/6 33/6/7 34/3/8
s 3
f 21/5/9 22/7/10 32/8/11 33/6/12
s 4
f 22/7/13 23/9/14 31/10/15 32/8/16
s 5
f 23/9/17 24/11/18 30/12/19 31/10/20
s 6
f 24/11/21 25/13/22 29/14/23 30/12/24
s 7
f 25/13/25 26/15/26 28/16/27 29/14/28
s 8
f 26/15/29 19/1/30 27/4/31 28/16/32
s 9
f 2/53/33 1/47/34 17/48/35
f 3/19/36 2/17/33 17/18/35
f 4/20/37 3/19/36 17/18/35
f 5/21/38 4/20/37 17/18/35
f 6/22/39 5/21/38 17/18/35
f 7/23/40 6/22/39 17/18/35
f 8/49/41 7/23/40 17/18/35
f 1/47/34 8/49/41 17/48/35
s 10
f 9/58/42 10/50/43 18/51/44
f 10/24/43 11/26/45 18/25/44
f 11/26/45 12/27/46 18/25/44
f 12/27/46 13/28/47 18/25/44
f 13/28/47 14/29/48 18/25/44
f 14/29/48 15/30/49 18/25/44
f 15/30/49 16/31/50 18/25/44
f 16/52/50 9/58/42 18/51/44
s 1
f 1/47/51 2/53/52 20/46/2 19/1/1
s 2
f 2/17/53 3/19/54 21/5/6 20/2/5
s 3
f 3/19/55 4/20/56 22/7/10 21/5/9
s 4
f 4/20/57 5/21/58 23/9/14 22/7/13
s 5
f 5/21/59 6/22/60 24/11/18 23/9/17
s 6
f 6/22/61 7/23/62 25/13/22 24/11/21
s 7
f 7/23/63 8/49/64 26/15/26 25/13/25
s 8
f 8/49/65 1/47/66 19/1/30 26/15/29
s off
f 36/32/67 35/54/68 37/59/69 38/33/70
f 39/34/71 36/32/72 38/33/73 40/35/74
f 41/36/75 39/34/76 40/35/77 42/37/78
f 43/38/79 41/36/80 42/37/81 44/39/82
f 45/40/83 43/38/84 44/39/85 46/41/86
f 47/42/87 45/40/88 46/41/89 48/43/90
f 49/44/91 47/42/92 48/43/93 50/45/94
f 35/54/95 49/57/96 50/55/97 37/59/98
f 28/16/99 27/4/100 35/54/101 36/32/102
f 9/58/103 16/31/104 38/33/105 37/59/106
f 29/14/107 28/16/108 36/32/109 39/34/110
f 16/31/111 15/30/112 40/35/113 38/33/114
f 30/12/115 29/14/116 39/34/117 41/36/118
f 15/30/119 14/29/120 42/37/121 40/35/122
f 31/10/123 30/12/124 41/36/125 43/38/126
f 14/29/127 13/28/128 44/39/129 42/37/130
f 32/8/131 31/10/132 43/38/133 45/40/134
f 13/28/135 12/27/136 46/41/137 44/39/138
f 33/6/139 32/8/140 45/40/141 47/42/142
f 12/27/143 11/26/144 48/43/145 46/41/146
f 34/3/147 33/6/148 47/42/149 49/44/150
f 11/26/151 10/24/152 50/45/153 48/43/154
f 27/4/155 34/56/156 49/57/157 35/54/158
f 10/50/159 9/58/160 37/59/161 50/55/162
