{
    "accessors" : [
        {
            "bufferView" : 0,
            "componentType" : 5125,
            "count" : 785643,
            "max" : [
                151174
            ],
            "min" : [
                0
            ],
            "type" : "SCALAR"
        },
        {
            "bufferView" : 1,
            "componentType" : 5126,
            "count" : 151175,
            "max" : [
                7.086920261383057,
                7.69599723815918,
                0.1399688720703125
            ],
            "min" : [
                -6.843226909637451,
                -8.043313026428223,
                -5.582147598266602
            ],
            "type" : "VEC3"
        },
        {
            "bufferView" : 2,
            "componentType" : 5126,
            "count" : 151175,
            "max" : [
                1.0,
                1.0,
                1.0
            ],
            "min" : [
                -1.0,
                -1.0,
                -1.0
            ],
            "type" : "VEC3"
        },
        {
            "bufferView" : 3,
            "componentType" : 5126,
            "count" : 151175,
            "max" : [
                1.0,
                1.0
            ],
            "min" : [
                0.0,
                -0.0016160011291503906
            ],
            "type" : "VEC2"
        },
        {
            "bufferView" : 4,
            "componentType" : 5123,
            "count" : 171,
            "max" : [
                86
            ],
            "min" : [
                0
            ],
            "type" : "SCALAR"
        },
        {
            "bufferView" : 5,
            "componentType" : 5126,
            "count" : 87,
            "max" : [
                6.206773281097412,
                5.660030364990234,
                6.645997047424316
            ],
            "min" : [
                -6.093226909637451,
                0.06002998352050781,
                -7.604002952575684
            ],
            "type" : "VEC3"
        },
        {
            "bufferView" : 6,
            "componentType" : 5126,
            "count" : 87,
            "max" : [
                0.0,
                1.0,
                -0.0
            ],
            "min" : [
                -0.37628841400146484,
                0.8466488718986511,
                -0.37628811597824097
            ],
            "type" : "VEC3"
        }
    ],
    "asset" : {
        "generator" : "Khronos Blender glTF 2.0 exporter",
        "version" : "2.0"
    },
    "bufferViews" : [
        {
            "buffer" : 0,
            "byteLength" : 3142572,
            "byteOffset" : 0,
            "target" : 34963
        },
        {
            "buffer" : 0,
            "byteLength" : 1814100,
            "byteOffset" : 3142572,
            "target" : 34962
        },
        {
            "buffer" : 0,
            "byteLength" : 1814100,
            "byteOffset" : 4956672,
            "target" : 34962
        },
        {
            "buffer" : 0,
            "byteLength" : 1209400,
            "byteOffset" : 6770772,
            "target" : 34962
        },
        {
            "buffer" : 0,
            "byteLength" : 342,
            "byteOffset" : 7980172,
            "target" : 34963
        },
        {
            "buffer" : 0,
            "byteLength" : 1044,
            "byteOffset" : 7980516,
            "target" : 34962
        },
        {
            "buffer" : 0,
            "byteLength" : 1044,
            "byteOffset" : 7981560,
            "target" : 34962
        }
    ],
    "buffers" : [
        {
            "byteLength" : 7982604,
            "uri" : "Environment.bin"
        }
    ],
    "materials" : [
        {
            "alphaMode" : "BLEND",
            "name" : "aiStandardSurface1SG.001",
            "pbrMetallicRoughness" : {
                "baseColorFactor" : [
                    0.0,
                    0.0,
                    0.0,
                    0.0
                ],
                "metallicFactor" : 0.0
            }
        },
        {
            "alphaMode" : "BLEND",
            "name" : "aiStandardSurface3SG.001",
            "pbrMetallicRoughness" : {
                "baseColorFactor" : [
                    0.0,
                    0.0,
                    0.0,
                    0.0
                ],
                "metallicFactor" : 0.0
            }
        },
        {
            "name" : "aiStandardSurface4SG.001",
            "pbrMetallicRoughness" : {
                "baseColorFactor" : [
                    0.33432623744010925,
                    0.33432623744010925,
                    0.33432623744010925,
                    1.0
                ],
                "metallicFactor" : 0.0
            }
        }
    ],
    "meshes" : [
        {
            "name" : "Environment",
            "primitives" : [
                {
                    "attributes" : {
                        "NORMAL" : 2,
                        "POSITION" : 1,
                        "TEXCOORD_0" : 3
                    },
                    "indices" : 0
                }
            ]
        },
        {
            "name" : "Navmesh.002",
            "primitives" : [
                {
                    "attributes" : {
                        "NORMAL" : 6,
                        "POSITION" : 5
                    },
                    "indices" : 4
                }
            ]
        }
    ],
    "nodes" : [
        {
            "mesh" : 0,
            "name" : "Environment",
            "rotation" : [
                0.7071068286895752,
                0.0,
                -0.0,
                0.7071067094802856
            ]
        },
        {
            "mesh" : 1,
            "name" : "Navmesh"
        }
    ],
    "scene" : 0,
    "scenes" : [
        {
            "name" : "Scene",
            "nodes" : [
                1,
                0
            ]
        }
    ]
}
