{"asset":{"version":"2.0","generator":"THREE.GLTFExporter"},"scenes":[{"nodes":[0],"name":"AuxScene"}],"scene":0,"nodes":[{"mesh":0}],"bufferViews":[{"buffer":0,"byteOffset":0,"byteLength":2376,"target":34962,"byteStride":12},{"buffer":0,"byteOffset":2376,"byteLength":2376,"target":34962,"byteStride":12}],"buffers":[{"byteLength":4752,"uri":"data:application/octet-stream;base64,"}],"accessors":[{"bufferView":0,"componentType":5126,"count":198,"max":[9.535161018371582,8.570000648498535,10.135030746459961],"min":[-9.36484146118164,-0.029999999329447746,-11.464969635009766],"type":"VEC3"},{"bufferView":1,"componentType":5126,"count":198,"max":[0.21496345102787018,1,0.20378471910953522],"min":[-0.4283532202243805,0.8995410203933716,-0.13435222208499908],"type":"VEC3"}],"materials":[{"pbrMetallicRoughness":{"baseColorFactor":[0.5019607843137255,0.5019607843137255,0.5019607843137255,1],"metallicFactor":0,"roughnessFactor":1}}],"meshes":[{"primitives":[{"mode":4,"attributes":{"POSITION":0,"NORMAL":1},"material":0}]}]}