{"asset":{"version":"2.0","generator":"THREE.GLTFExporter"},"scenes":[{"nodes":[0],"name":"AuxScene"}],"scene":0,"nodes":[{"mesh":0}],"bufferViews":[{"buffer":0,"byteOffset":0,"byteLength":4644,"target":34962,"byteStride":12},{"buffer":0,"byteOffset":4644,"byteLength":4644,"target":34962,"byteStride":12}],"buffers":[{"byteLength":9288,"uri":"data:application/octet-stream;base64,"}],"accessors":[{"bufferView":0,"componentType":5126,"count":387,"max":[11.913495063781738,10.34000015258789,13.019132614135742],"min":[-11.686504364013672,0.14000000059604645,-14.680867195129395],"type":"VEC3"},{"bufferView":1,"componentType":5126,"count":387,"max":[0.3268440365791321,1,0],"min":[-0.17942412197589874,0.4037078320980072,-0.8971214890480042],"type":"VEC3"}],"materials":[{"pbrMetallicRoughness":{"baseColorFactor":[0.5019607843137255,0.5019607843137255,0.5019607843137255,1],"metallicFactor":0,"roughnessFactor":1}}],"meshes":[{"primitives":[{"mode":4,"attributes":{"POSITION":0,"NORMAL":1},"material":0}]}]}