# This file uses centimeters as units for non-parametric coordinates.

mtllib Environment.mtl
g default
v -282.461761 262.634674 495.941895
v -286.196625 262.634674 495.089447
v -289.191742 262.634674 497.477936
v -289.191742 262.634674 501.308868
v -286.196625 262.634674 503.697388
v -282.461761 262.634674 502.844940
v -280.799591 262.634674 499.393402
v -282.461761 346.738617 495.941895
v -286.196625 346.738617 495.089447
v -289.191742 346.738617 497.477936
v -289.191742 346.738617 501.308868
v -286.196625 346.738617 503.697388
v -282.461761 346.738617 502.844940
v -280.799591 346.738617 499.393402
v -255.587326 262.634674 495.941895
v -259.322174 262.634674 495.089447
v -262.317291 262.634674 497.477936
v -262.317291 262.634674 501.308868
v -259.322174 262.634674 503.697388
v -255.587326 262.634674 502.844940
v -253.925156 262.634674 499.393402
v -255.587326 346.738617 495.941895
v -259.322174 346.738617 495.089447
v -262.317291 346.738617 497.477936
v -262.317291 346.738617 501.308868
v -259.322174 346.738617 503.697388
v -255.587326 346.738617 502.844940
v -253.925156 346.738617 499.393402
v -229.710052 262.634674 495.941895
v -233.444901 262.634674 495.089447
v -236.440033 262.634674 497.477936
v -236.440033 262.634674 501.308868
v -233.444901 262.634674 503.697388
v -229.710052 262.634674 502.844940
v -228.047897 262.634674 499.393402
v -229.710052 346.738617 495.941895
v -233.444901 346.738617 495.089447
v -236.440033 346.738617 497.477936
v -236.440033 346.738617 501.308868
v -233.444901 346.738617 503.697388
v -229.710052 346.738617 502.844940
v -228.047897 346.738617 499.393402
v -203.583496 262.634674 495.941895
v -207.318344 262.634674 495.089447
v -210.313477 262.634674 497.477936
v -210.313477 262.634674 501.308868
v -207.318344 262.634674 503.697388
v -203.583496 262.634674 502.844940
v -201.921326 262.634674 499.393402
v -203.583496 346.738617 495.941895
v -207.318344 346.738617 495.089447
v -210.313477 346.738617 497.477936
v -210.313477 346.738617 501.308868
v -207.318344 346.738617 503.697388
v -203.583496 346.738617 502.844940
v -201.921326 346.738617 499.393402
v -176.858627 262.634674 495.941895
v -180.593475 262.634674 495.089447
v -183.588593 262.634674 497.477936
v -183.588593 262.634674 501.308868
v -180.593475 262.634674 503.697388
v -176.858627 262.634674 502.844940
v -175.196457 262.634674 499.393402
v -176.858627 346.738617 495.941895
v -180.593475 346.738617 495.089447
v -183.588593 346.738617 497.477936
v -183.588593 346.738617 501.308868
v -180.593475 346.738617 503.697388
v -176.858627 346.738617 502.844940
v -175.196457 346.738617 499.393402
v -150.432907 262.634674 495.941895
v -154.167755 262.634674 495.089447
v -157.162872 262.634674 497.477936
v -157.162872 262.634674 501.308868
v -154.167755 262.634674 503.697388
v -150.432907 262.634674 502.844940
v -148.770737 262.634674 499.393402
v -150.432907 346.738617 495.941895
v -154.167755 346.738617 495.089447
v -157.162872 346.738617 497.477936
v -157.162872 346.738617 501.308868
v -154.167755 346.738617 503.697388
v -150.432907 346.738617 502.844940
v -148.770737 346.738617 499.393402
v 335.745514 367.464081 -512.320435
v 335.745514 0.000007 -512.320435
v 335.745514 343.940613 129.981079
v 335.745514 0.000007 130.000000
v -335.570923 0.000007 490.020325
v 335.745514 0.000007 490.020325
v -335.570923 367.464081 490.020325
v -335.570923 367.464081 -512.320435
v 335.745514 367.464081 490.020325
v 335.745514 343.940613 350.010437
v -309.794006 266.061890 490.020325
v -309.794006 343.010742 490.020325
v -309.794006 343.010742 509.959351
v -309.794006 266.061890 509.959351
v -143.091248 266.061890 490.020325
v -143.091248 266.061890 509.959351
v 335.745514 0.000007 350.000000
v -143.091248 343.010742 509.959351
v -143.091248 343.010742 490.020325
v 335.745514 0.000002 130.000000
v 355.555847 0.000002 130.000000
v 355.555817 343.940613 130.018921
v 355.555817 343.940613 349.989502
v 355.555847 0.000002 350.000000
v 335.745514 0.000002 350.000000
v -335.570923 0.000007 -512.320435
vt 0.203061 0.932602
vt 0.226985 0.932602
vt 0.250910 0.932602
vt 0.274835 0.932602
vt 0.298759 0.932602
vt 0.322684 0.932602
vt 0.346609 0.932602
vt 0.370533 0.932602
vt 0.203061 0.987742
vt 0.226985 0.987742
vt 0.250910 0.987742
vt 0.274835 0.987742
vt 0.298759 0.987742
vt 0.322684 0.987742
vt 0.346609 0.987742
vt 0.370533 0.987742
vt 0.023950 0.932602
vt 0.047874 0.932602
vt 0.047874 0.987742
vt 0.023950 0.987742
vt 0.071799 0.932602
vt 0.071799 0.987742
vt 0.095724 0.932602
vt 0.095724 0.987742
vt 0.119648 0.932602
vt 0.119648 0.987742
vt 0.143573 0.932602
vt 0.143573 0.987742
vt 0.167498 0.932602
vt 0.167498 0.987742
vt 0.191422 0.932602
vt 0.191422 0.987742
vt 0.378518 0.855290
vt 0.402443 0.855290
vt 0.402443 0.910431
vt 0.378518 0.910431
vt 0.426367 0.855290
vt 0.426367 0.910431
vt 0.450292 0.855290
vt 0.450292 0.910431
vt 0.474217 0.855290
vt 0.474217 0.910431
vt 0.498141 0.855290
vt 0.498141 0.910431
vt 0.522066 0.855290
vt 0.522066 0.910431
vt 0.545991 0.855290
vt 0.545991 0.910431
vt 0.199288 0.855290
vt 0.223213 0.855290
vt 0.223213 0.910431
vt 0.199288 0.910431
vt 0.247138 0.855290
vt 0.247138 0.910431
vt 0.271062 0.855290
vt 0.271062 0.910431
vt 0.294987 0.855290
vt 0.294987 0.910431
vt 0.318912 0.855290
vt 0.318912 0.910431
vt 0.342836 0.855290
vt 0.342836 0.910431
vt 0.366761 0.855290
vt 0.366761 0.910431
vt 0.022224 0.855290
vt 0.046149 0.855290
vt 0.046149 0.910431
vt 0.022224 0.910431
vt 0.070074 0.855290
vt 0.070074 0.910431
vt 0.093998 0.855290
vt 0.093998 0.910431
vt 0.117923 0.855290
vt 0.117923 0.910431
vt 0.141848 0.855290
vt 0.141848 0.910431
vt 0.165772 0.855290
vt 0.165772 0.910431
vt 0.189697 0.855290
vt 0.189697 0.910431
vt 0.379521 0.932601
vt 0.403446 0.932601
vt 0.403446 0.987742
vt 0.379521 0.987742
vt 0.427371 0.932601
vt 0.427371 0.987742
vt 0.451295 0.932601
vt 0.451295 0.987742
vt 0.475220 0.932601
vt 0.475220 0.987742
vt 0.499145 0.932601
vt 0.499145 0.987742
vt 0.523069 0.932601
vt 0.523069 0.987742
vt 0.546994 0.932601
vt 0.546994 0.987742
vt 0.973286 1.024696
vt 0.973286 1.487994
vt 0.509988 1.487994
vt 0.509988 1.024696
vt 0.773675 0.015556
vt 0.773675 0.098929
vt 0.752094 0.098929
vt 0.752094 0.015556
vt 0.773675 0.104045
vt 0.773675 0.284665
vt 0.752094 0.284665
vt 0.752094 0.104045
vt 0.715641 0.551154
vt 0.006981 0.551154
vt 0.006981 0.291574
vt 0.459778 0.291574
vt 0.459778 0.534799
vt 0.617033 0.534799
vt 0.617033 0.292444
vt 0.715641 0.292444
vt 0.796565 0.104046
vt 0.796565 0.284665
vt 0.774983 0.284665
vt 0.774983 0.104046
vt 0.796565 0.015556
vt 0.796565 0.098929
vt 0.774983 0.098929
vt 0.774983 0.015556
vt 0.836077 0.538046
vt 0.836077 0.015557
vt 0.836077 0.015556
vt 0.866205 0.015556
vt 0.866205 0.538046
vt 0.801419 0.349365
vt 0.801419 0.015556
vt 0.831641 0.015557
vt 0.831641 0.349365
vt 0.900081 0.015556
vt 0.900081 0.538046
vt 0.870034 0.538046
vt 0.870034 0.538045
vt 0.870034 0.015556
vt 0.708045 0.019542
vt 0.708045 0.276849
vt 0.006981 0.276849
vt 0.006981 0.019542
vt 0.011490 0.828371
vt 0.011490 0.565649
vt 0.487315 0.565649
vt 0.487315 0.828371
vt 0.980684 0.828371
vt 0.502589 0.828371
vt 0.502589 0.566328
vt 0.980684 0.566328
vt 0.843588 0.810945
vt 0.962329 0.810945
vt 0.962329 0.756132
vt 0.843588 0.756132
vt 0.467783 1.190836
vt 0.467699 1.487994
vt 0.017753 1.487994
vt 0.017753 1.024696
vt 0.467699 1.024696
vt 0.467854 1.089306
vt 0.467854 1.089306
vt 0.481051 1.089306
vt 0.481051 1.190836
vt 0.467783 1.190836
vn 0.222522 0.000000 -0.974928
vn 0.222522 0.000000 -0.974928
vn 0.222522 0.000000 -0.974928
vn 0.222522 0.000000 -0.974928
vn -0.623487 0.000000 -0.781834
vn -0.623487 0.000000 -0.781834
vn -0.623487 0.000000 -0.781834
vn -0.623487 0.000000 -0.781834
vn -1.000000 0.000000 0.000000
vn -1.000000 0.000000 0.000000
vn -1.000000 0.000000 0.000000
vn -1.000000 0.000000 0.000000
vn -0.623494 0.000000 0.781828
vn -0.623494 0.000000 0.781828
vn -0.623494 0.000000 0.781828
vn -0.623494 0.000000 0.781828
vn 0.222522 0.000000 0.974928
vn 0.222522 0.000000 0.974928
vn 0.222522 0.000000 0.974928
vn 0.222522 0.000000 0.974928
vn 0.900970 0.000000 0.433882
vn 0.900970 0.000000 0.433882
vn 0.900970 0.000000 0.433882
vn 0.900970 0.000000 0.433882
vn 0.900967 0.000000 -0.433887
vn 0.900967 0.000000 -0.433887
vn 0.900967 0.000000 -0.433887
vn 0.900967 0.000000 -0.433887
vn 0.222522 0.000000 -0.974928
vn 0.222522 0.000000 -0.974928
vn 0.222522 0.000000 -0.974928
vn 0.222522 0.000000 -0.974928
vn -0.623487 0.000000 -0.781834
vn -0.623487 0.000000 -0.781834
vn -0.623487 0.000000 -0.781834
vn -0.623487 0.000000 -0.781834
vn -1.000000 0.000000 0.000000
vn -1.000000 0.000000 0.000000
vn -1.000000 0.000000 0.000000
vn -1.000000 0.000000 0.000000
vn -0.623494 0.000000 0.781828
vn -0.623494 0.000000 0.781828
vn -0.623494 0.000000 0.781828
vn -0.623494 0.000000 0.781828
vn 0.222522 0.000000 0.974928
vn 0.222522 0.000000 0.974928
vn 0.222522 0.000000 0.974928
vn 0.222522 0.000000 0.974928
vn 0.900970 0.000000 0.433882
vn 0.900970 0.000000 0.433882
vn 0.900970 0.000000 0.433882
vn 0.900970 0.000000 0.433882
vn 0.900967 0.000000 -0.433887
vn 0.900967 0.000000 -0.433887
vn 0.900967 0.000000 -0.433887
vn 0.900967 0.000000 -0.433887
vn 0.222522 0.000000 -0.974928
vn 0.222522 0.000000 -0.974928
vn 0.222522 0.000000 -0.974928
vn 0.222522 0.000000 -0.974928
vn -0.623485 0.000000 -0.781836
vn -0.623485 0.000000 -0.781836
vn -0.623485 0.000000 -0.781836
vn -0.623485 0.000000 -0.781836
vn -1.000000 0.000000 0.000000
vn -1.000000 0.000000 0.000000
vn -1.000000 0.000000 0.000000
vn -1.000000 0.000000 0.000000
vn -0.623492 0.000000 0.781830
vn -0.623492 0.000000 0.781830
vn -0.623492 0.000000 0.781830
vn -0.623492 0.000000 0.781830
vn 0.222522 0.000000 0.974928
vn 0.222522 0.000000 0.974928
vn 0.222522 0.000000 0.974928
vn 0.222522 0.000000 0.974928
vn 0.900971 0.000000 0.433879
vn 0.900971 0.000000 0.433879
vn 0.900971 0.000000 0.433879
vn 0.900971 0.000000 0.433879
vn 0.900969 0.000000 -0.433883
vn 0.900969 0.000000 -0.433883
vn 0.900969 0.000000 -0.433883
vn 0.900969 0.000000 -0.433883
vn 0.222522 0.000000 -0.974928
vn 0.222522 0.000000 -0.974928
vn 0.222522 0.000000 -0.974928
vn 0.222522 0.000000 -0.974928
vn -0.623485 0.000000 -0.781836
vn -0.623485 0.000000 -0.781836
vn -0.623485 0.000000 -0.781836
vn -0.623485 0.000000 -0.781836
vn -1.000000 0.000000 0.000000
vn -1.000000 0.000000 0.000000
vn -1.000000 0.000000 0.000000
vn -1.000000 0.000000 0.000000
vn -0.623492 0.000000 0.781830
vn -0.623492 0.000000 0.781830
vn -0.623492 0.000000 0.781830
vn -0.623492 0.000000 0.781830
vn 0.222522 0.000000 0.974928
vn 0.222522 0.000000 0.974928
vn 0.222522 0.000000 0.974928
vn 0.222522 0.000000 0.974928
vn 0.900970 0.000000 0.433882
vn 0.900970 0.000000 0.433882
vn 0.900970 0.000000 0.433882
vn 0.900970 0.000000 0.433882
vn 0.900967 0.000000 -0.433887
vn 0.900967 0.000000 -0.433887
vn 0.900967 0.000000 -0.433887
vn 0.900967 0.000000 -0.433887
vn 0.222522 0.000000 -0.974928
vn 0.222522 0.000000 -0.974928
vn 0.222522 0.000000 -0.974928
vn 0.222522 0.000000 -0.974928
vn -0.623487 0.000000 -0.781834
vn -0.623487 0.000000 -0.781834
vn -0.623487 0.000000 -0.781834
vn -0.623487 0.000000 -0.781834
vn -1.000000 0.000000 0.000000
vn -1.000000 0.000000 0.000000
vn -1.000000 0.000000 0.000000
vn -1.000000 0.000000 0.000000
vn -0.623494 0.000000 0.781828
vn -0.623494 0.000000 0.781828
vn -0.623494 0.000000 0.781828
vn -0.623494 0.000000 0.781828
vn 0.222522 0.000000 0.974928
vn 0.222522 0.000000 0.974928
vn 0.222522 0.000000 0.974928
vn 0.222522 0.000000 0.974928
vn 0.900970 0.000000 0.433882
vn 0.900970 0.000000 0.433882
vn 0.900970 0.000000 0.433882
vn 0.900970 0.000000 0.433882
vn 0.900967 0.000000 -0.433887
vn 0.900967 0.000000 -0.433887
vn 0.900967 0.000000 -0.433887
vn 0.900967 0.000000 -0.433887
vn 0.222522 0.000000 -0.974928
vn 0.222522 0.000000 -0.974928
vn 0.222522 0.000000 -0.974928
vn 0.222522 0.000000 -0.974928
vn -0.623487 0.000000 -0.781834
vn -0.623487 0.000000 -0.781834
vn -0.623487 0.000000 -0.781834
vn -0.623487 0.000000 -0.781834
vn -1.000000 0.000000 0.000000
vn -1.000000 0.000000 0.000000
vn -1.000000 0.000000 0.000000
vn -1.000000 0.000000 0.000000
vn -0.623494 0.000000 0.781828
vn -0.623494 0.000000 0.781828
vn -0.623494 0.000000 0.781828
vn -0.623494 0.000000 0.781828
vn 0.222522 0.000000 0.974928
vn 0.222522 0.000000 0.974928
vn 0.222522 0.000000 0.974928
vn 0.222522 0.000000 0.974928
vn 0.900970 0.000000 0.433882
vn 0.900970 0.000000 0.433882
vn 0.900970 0.000000 0.433882
vn 0.900970 0.000000 0.433882
vn 0.900967 0.000000 -0.433887
vn 0.900967 0.000000 -0.433887
vn 0.900967 0.000000 -0.433887
vn 0.900967 0.000000 -0.433887
vn 0.000000 -1.000000 0.000000
vn 0.000000 -1.000000 0.000000
vn 0.000000 -1.000000 0.000000
vn 0.000000 -1.000000 0.000000
vn 1.000000 0.000000 0.000000
vn 1.000000 0.000000 0.000000
vn 1.000000 0.000000 0.000000
vn 1.000000 0.000000 0.000000
vn 0.000000 1.000000 0.000000
vn 0.000000 1.000000 0.000000
vn 0.000000 1.000000 0.000000
vn 0.000000 1.000000 0.000000
vn -1.000000 -0.000000 0.000000
vn -1.000000 -0.000000 0.000000
vn -1.000000 -0.000000 0.000000
vn -1.000000 -0.000000 0.000000
vn -1.000000 -0.000000 0.000000
vn -1.000000 -0.000000 0.000000
vn -1.000000 -0.000000 0.000000
vn -1.000000 -0.000000 0.000000
vn 0.000000 -1.000000 0.000000
vn 0.000000 -1.000000 0.000000
vn 0.000000 -1.000000 0.000000
vn 0.000000 -1.000000 0.000000
vn -1.000000 0.000000 0.000000
vn -1.000000 0.000000 0.000000
vn -1.000000 0.000000 0.000000
vn -1.000000 0.000000 0.000000
vn -0.000955 -0.000000 1.000000
vn -0.000955 -0.000000 1.000000
vn -0.000955 -0.000000 1.000000
vn -0.000955 -0.000000 1.000000
vn -0.000955 -0.000000 1.000000
vn 0.000000 -1.000000 0.000000
vn 0.000000 -1.000000 0.000000
vn 0.000000 -1.000000 0.000000
vn 0.000000 -1.000000 0.000000
vn -0.000529 -0.000000 -1.000000
vn -0.000529 -0.000000 -1.000000
vn -0.000529 -0.000000 -1.000000
vn -0.000529 -0.000000 -1.000000
vn -0.000529 -0.000000 -1.000000
vn 1.000000 0.000000 0.000000
vn 1.000000 0.000000 0.000000
vn 1.000000 0.000000 0.000000
vn 1.000000 0.000000 0.000000
vn 0.000000 0.000000 1.000000
vn 0.000000 0.000000 1.000000
vn 0.000000 0.000000 1.000000
vn 0.000000 0.000000 1.000000
vn 0.000000 0.000000 -1.000000
vn 0.000000 0.000000 -1.000000
vn 0.000000 0.000000 -1.000000
vn 0.000000 0.000000 -1.000000
vn 0.000000 0.000000 -1.000000
vn 0.000000 0.000000 -1.000000
vn 0.000000 0.000000 -1.000000
vn 0.000000 0.000000 -1.000000
vn 0.000000 1.000000 0.000000
vn 0.000000 1.000000 0.000000
vn 0.000000 1.000000 0.000000
vn 0.000000 1.000000 0.000000
vn 0.000000 1.000000 0.000000
vn 0.000000 1.000000 0.000000
vn 0.000000 1.000000 0.000000
vn 0.000000 1.000000 0.000000
vn 0.000000 1.000000 0.000000
vn 0.000000 1.000000 0.000000
s off
g Room
usemtl aiStandardSurface5SG
f 1/1/1 2/2/2 9/10/3 8/9/4
f 2/2/5 3/3/6 10/11/7 9/10/8
f 3/3/9 4/4/10 11/12/11 10/11/12
f 4/4/13 5/5/14 12/13/15 11/12/16
f 5/5/17 6/6/18 13/14/19 12/13/20
f 6/6/21 7/7/22 14/15/23 13/14/24
f 7/7/25 1/8/26 8/16/27 14/15/28
f 15/17/29 16/18/30 23/19/31 22/20/32
f 16/18/33 17/21/34 24/22/35 23/19/36
f 17/21/37 18/23/38 25/24/39 24/22/40
f 18/23/41 19/25/42 26/26/43 25/24/44
f 19/25/45 20/27/46 27/28/47 26/26/48
f 20/27/49 21/29/50 28/30/51 27/28/52
f 21/29/53 15/31/54 22/32/55 28/30/56
f 29/33/57 30/34/58 37/35/59 36/36/60
f 30/34/61 31/37/62 38/38/63 37/35/64
f 31/37/65 32/39/66 39/40/67 38/38/68
f 32/39/69 33/41/70 40/42/71 39/40/72
f 33/41/73 34/43/74 41/44/75 40/42/76
f 34/43/77 35/45/78 42/46/79 41/44/80
f 35/45/81 29/47/82 36/48/83 42/46/84
f 43/49/85 44/50/86 51/51/87 50/52/88
f 44/50/89 45/53/90 52/54/91 51/51/92
f 45/53/93 46/55/94 53/56/95 52/54/96
f 46/55/97 47/57/98 54/58/99 53/56/100
f 47/57/101 48/59/102 55/60/103 54/58/104
f 48/59/105 49/61/106 56/62/107 55/60/108
f 49/61/109 43/63/110 50/64/111 56/62/112
f 57/65/113 58/66/114 65/67/115 64/68/116
f 58/66/117 59/69/118 66/70/119 65/67/120
f 59/69/121 60/71/122 67/72/123 66/70/124
f 60/71/125 61/73/126 68/74/127 67/72/128
f 61/73/129 62/75/130 69/76/131 68/74/132
f 62/75/133 63/77/134 70/78/135 69/76/136
f 63/77/137 57/79/138 64/80/139 70/78/140
f 71/81/141 72/82/142 79/83/143 78/84/144
f 72/82/145 73/85/146 80/86/147 79/83/148
f 73/85/149 74/87/150 81/88/151 80/86/152
f 74/87/153 75/89/154 82/90/155 81/88/156
f 75/89/157 76/91/158 83/92/159 82/90/160
f 76/91/161 77/93/162 84/94/163 83/92/164
f 77/93/165 71/95/166 78/96/167 84/94/168
f 91/97/169 92/98/170 85/99/171 93/100/172
f 95/101/173 96/102/174 97/103/175 98/104/176
f 99/105/177 95/106/178 98/107/179 100/108/180
f 93/109/181 85/110/182 86/111/183 88/112/184 87/113/185 94/114/186 101/115/187 90/116/188
f 102/117/189 97/118/190 96/119/191 103/120/192
f 100/121/193 102/122/194 103/123/195 99/124/196
f 87/125/197 88/126/198 104/127/199 105/128/200 106/129/201
f 94/130/202 87/131/203 106/132/204 107/133/205
f 107/134/206 108/135/207 109/136/208 101/137/209 94/138/210
f 110/139/211 92/140/212 91/141/213 89/142/214
f 92/143/215 110/144/216 86/145/217 85/146/218
f 91/147/219 93/148/220 90/149/221 89/150/222 103/151/223 96/152/224 95/153/225 99/154/226
f 88/155/227 86/156/228 110/157/229 89/158/230 90/159/231 101/160/232 109/161/233 108/162/234 105/163/235 104/164/236
